<svg version="1.1" viewBox="0 0 16 16.001" xmlns="http://www.w3.org/2000/svg">
 <g fill="#474747" font-family="sans-serif" font-weight="400" white-space="normal">
  <path d="M5.985 5.015A1 1 0 0 1 5 4c0-1.426.76-2.748 1.992-3.463a3.985 3.985 0 0 1 3.993 0 4.006 4.006 0 0 1 1.994 3.463 1 1 0 1 1-2 0c0-.717-.38-1.375-.996-1.732a1.975 1.975 0 0 0-1.987 0A1.998 1.998 0 0 0 7 4a1 1 0 0 1-1.015 1.014zM7.5 12.001a2.515 2.515 0 0 1-2.5-2.5 1 1 0 1 1 2 0c0 .288.212.5.5.5.288 0 .5-.212.5-.5a1 1 0 1 1 2 0c0 1.37-1.13 2.5-2.5 2.5z" overflow="visible" style="font-feature-settings:normal;font-variant-alternates:normal;font-variant-caps:normal;font-variant-ligatures:normal;font-variant-numeric:normal;font-variant-position:normal;isolation:auto;mix-blend-mode:normal;shape-padding:0;text-decoration-color:#000;text-decoration-line:none;text-decoration-style:solid;text-indent:0;text-orientation:mixed;text-transform:none"/>
  <path d="M8.985 4.988A1 1 0 0 0 8 6V9.47a1 1 0 1 0 2 0V6.001a1 1 0 0 0-1.015-1.013zM11.985 2.988A1 1 0 0 0 11 4v6.817a1 1 0 1 0 2 0V4a1 1 0 0 0-1.015-1.013zM5.985 2.988A1 1 0 0 0 5 4v5.406a1 1 0 1 0 2 0V4.001a1 1 0 0 0-1.015-1.013zM2.985 3.988A1 1 0 0 0 2 5v6a1 1 0 1 0 2 0v-6a1 1 0 0 0-1.015-1.013z" overflow="visible" style="font-feature-settings:normal;font-variant-alternates:normal;font-variant-caps:normal;font-variant-ligatures:normal;font-variant-numeric:normal;font-variant-position:normal;isolation:auto;mix-blend-mode:normal;shape-padding:0;text-decoration-color:#000;text-decoration-line:none;text-decoration-style:solid;text-indent:0;text-orientation:mixed;text-transform:none"/>
  <path d="M12.037 9.99a1 1 0 0 0-.838.412l-2.699 3.6H6.494l-2.699-3.544a1 1 0 1 0-1.59 1.211l3 3.938A1 1 0 0 0 6 16h3a1 1 0 0 0 .8-.4l3-4a1 1 0 0 0-.763-1.611z" overflow="visible" style="font-feature-settings:normal;font-variant-alternates:normal;font-variant-caps:normal;font-variant-ligatures:normal;font-variant-numeric:normal;font-variant-position:normal;isolation:auto;mix-blend-mode:normal;shape-padding:0;text-decoration-color:#000;text-decoration-line:none;text-decoration-style:solid;text-indent:0;text-orientation:mixed;text-transform:none"/>
 </g>
 <g transform="matrix(.66852 0 0 .66852 6.6258 6.6288)" color="#bebebe" fill="#999">
  <path d="m3 7h10c0.554 0 1 0.446 1 1v3c0 0.554-0.446 1-1 1h-10c-0.554 0-1-0.446-1-1v-3c0-0.554 0.446-1 1-1z" overflow="visible"/>
  <path d="m2 10h12v4h-12z" overflow="visible"/>
  <path d="m7 1c-1.645 0-3 1.355-3 3v6c0 1.645 1.355 3 3 3h2c1.645 0 3-1.355 3-3v-6c0-1.645-1.355-3-3-3zm0 2h2c0.571 0 1 0.429 1 1v6c0 0.571-0.429 1-1 1h-2c-0.571 0-1-0.429-1-1v-6c0-0.571 0.429-1 1-1z" font-weight="400" overflow="visible" style="font-feature-settings:normal;font-variant-alternates:normal;font-variant-caps:normal;font-variant-ligatures:normal;font-variant-numeric:normal;font-variant-position:normal;isolation:auto;mix-blend-mode:normal;shape-padding:0;text-decoration-color:#000000;text-decoration-line:none;text-decoration-style:solid;text-indent:0;text-orientation:mixed;text-transform:none;white-space:normal"/>
 </g>
</svg>
