<svg version="1.1" viewBox="0 0 16 16" xmlns="http://www.w3.org/2000/svg">
 <g fill="#808080">
  <path d="m9 7c0-0.554 0.446-1 1-1s1 0.446 1 1-0.446 1-1 1-1-0.446-1-1zm-4 0c0-0.554 0.446-1 1-1s1 0.446 1 1-0.446 1-1 1-1-0.446-1-1z" color="#000000" overflow="visible"/>
  <path d="m3 16c-0.55228 0-1-0.44772-1-1v-13c0-0.55228 0.44772-1 1-1h2c1.3333 0 1.3333 2 0 2h-1v11h8v-8.5671l-2.4228-2.4329h-0.57717v4c0 1.3333-2 1.3333-2 0v-5c0-0.55228 0.44772-1.0024 1-1l2.5914 0.011049c0.27614 0.00118 0.9215 0.83457 1.7076 1.6411 0.78606 0.80657 1.7128 1.5863 1.7121 2.2757l-0.011049 10.072c0 0.70169-0.56835 1-1.2665 1z" color="#000000" fill-rule="evenodd" font-weight="400" overflow="visible" style="font-feature-settings:normal;font-variant-alternates:normal;font-variant-caps:normal;font-variant-ligatures:normal;font-variant-numeric:normal;font-variant-position:normal;isolation:auto;mix-blend-mode:normal;shape-padding:0;text-decoration-color:#000000;text-decoration-line:none;text-decoration-style:solid;text-indent:0;text-orientation:mixed;text-transform:none;white-space:normal"/>
  <path d="M 8,10.414 5.293,7.707 6.707,6.293 8,7.586 9.293,6.293 10.707,7.707 Z" color="#000000" font-weight="400" overflow="visible" style="font-feature-settings:normal;font-variant-alternates:normal;font-variant-caps:normal;font-variant-ligatures:normal;font-variant-numeric:normal;font-variant-position:normal;isolation:auto;mix-blend-mode:normal;shape-padding:0;text-decoration-color:#000000;text-decoration-line:none;text-decoration-style:solid;text-indent:0;text-orientation:mixed;text-transform:none;white-space:normal"/>
  <path d="m10 7v-1h1v1zm-5 0v-1h1v1z" color="#000000" overflow="visible"/>
 </g>
</svg>
