<svg version="1.1" viewBox="0 0 16 16" xmlns="http://www.w3.org/2000/svg">
 <path d="m1.5 14h13c0.277 0 0.5 0.223 0.5 0.5v1c0 0.277-0.223 0.5-0.5 0.5h-13a0.499 0.499 0 0 1-0.5-0.5v-1c0-0.277 0.223-0.5 0.5-0.5z" color="#000000" fill="#333" overflow="visible"/>
 <path d="m7 11h2v4h-2z" color="#000000" fill="#333" overflow="visible"/>
 <g transform="matrix(.77529 0 0 .77529 2.0224 .92129)" color="#bebebe" fill="#2e3436">
  <path d="m6 0a3 3 0 1 0 0 6 3 3 0 0 0 0-6zm-1.5 7a4.49 4.49 0 0 0-4.5 4.5v0.5c0 1 1 1 1 1h6v-4.125c0-0.83 0.587-1.554 1.355-1.79a4.532 4.532 0 0 0-0.855-0.085zm4.5 2v4h1v-4z" overflow="visible"/>
  <path d="m8.875 8a0.863 0.863 0 0 0-0.875 0.875v6.25c0 0.492 0.383 0.875 0.875 0.875h6.25a0.863 0.863 0 0 0 0.875-0.875v-6.25a0.863 0.863 0 0 0-0.875-0.875zm2.125 1h2v1h-2zm0 2h2v4h-2z" overflow="visible"/>
 </g>
</svg>
