<svg version="1.1" viewBox="0 0 16 16" xmlns="http://www.w3.org/2000/svg">
 <g fill="#2e3436">
  <path d="M16 2L0 7l3.5 2.656L14.563 2.97 5.25 10.656l4.281 3.156z"/>
  <path d="M3 8.5v6.102l2.83-2.475-.66-.754L4 12.396V8.5z" fill-rule="evenodd" font-family="sans-serif" font-weight="400" overflow="visible" style="font-feature-settings:normal;font-variant-alternates:normal;font-variant-caps:normal;font-variant-ligatures:normal;font-variant-numeric:normal;font-variant-position:normal;isolation:auto;mix-blend-mode:normal;shape-padding:0;text-decoration-color:#000;text-decoration-line:none;text-decoration-style:solid;text-indent:0;text-orientation:mixed;text-transform:none" white-space="normal"/>
 </g>
 <g transform="matrix(.54494 0 0 .54494 6.5448 7.4518)" color="#000000" fill="#999" font-weight="400">
  <path d="m8.487 0.02a7.492 7.492 0 0 0-7.487 7.487 7.492 7.492 0 0 0 7.487 7.486 7.492 7.492 0 0 0 7.486-7.486 7.492 7.492 0 0 0-7.486-7.487zm0 1.973a5.508 5.508 0 0 1 5.513 5.514 5.508 5.508 0 0 1-5.513 5.513 5.508 5.508 0 0 1-5.514-5.513 5.508 5.508 0 0 1 5.514-5.514z" overflow="visible" style="text-decoration-line:none;text-indent:0;text-transform:none"/>
  <path d="m11.393 4.007a0.5 0.5 0 0 0-0.25 0.156l-2.656 2.656-1.657-1.656a0.5 0.5 0 1 0-0.687 0.687l2 2a0.5 0.5 0 0 0 0.687 0l3-3a0.5 0.5 0 0 0-0.437-0.843z" overflow="visible" style="text-decoration-line:none;text-indent:0;text-transform:none"/>
 </g>
</svg>
