<svg version="1.1" viewBox="0 0 16 16" xmlns="http://www.w3.org/2000/svg">
 <g fill="#474747" font-family="sans-serif" font-weight="400" white-space="normal">
  <path d="M2.979 3.99a1 1 0 0 0-.604 1.791L8 10.281l5.625-4.5a1 1 0 1 0-1.25-1.562L8 7.719l-4.375-3.5a1 1 0 0 0-.646-.229z" overflow="visible" style="font-feature-settings:normal;font-variant-alternates:normal;font-variant-caps:normal;font-variant-ligatures:normal;font-variant-numeric:normal;font-variant-position:normal;isolation:auto;mix-blend-mode:normal;shape-padding:0;text-decoration-color:#000;text-decoration-line:none;text-decoration-style:solid;text-indent:0;text-orientation:mixed;text-transform:none"/>
  <path d="M2 3a1 1 0 0 0-1 1v9a1 1 0 0 0 1 1h12a1 1 0 0 0 1-1V4a1 1 0 0 0-1-1zm1 2h10v7H3z" overflow="visible" style="font-feature-settings:normal;font-variant-alternates:normal;font-variant-caps:normal;font-variant-ligatures:normal;font-variant-numeric:normal;font-variant-position:normal;isolation:auto;mix-blend-mode:normal;shape-padding:0;text-decoration-color:#000;text-decoration-line:none;text-decoration-style:solid;text-indent:0;text-orientation:mixed;text-transform:none"/>
 </g>
 <rect x="7.4576" y="9.322" width="8.5593" height="6.6949" fill="#fff" stroke-width=".96437"/>
 <g transform="matrix(.53955 0 0 .53955 7.4669 8.4463)" fill="#999">
  <path d="M 8,2 A 8,8 0 0 0 0.262,8.01 8,8 0 0 0 8,14 8,8 0 0 0 15.738,7.99 8,8 0 0 0 8,2 Z M 8,4 A 4,4 0 0 1 12,8 4,4 0 0 1 8,12 4,4 0 0 1 4,8 4,4 0 0 1 8,4 Z"/>
  <path d="m10 8a2 2 0 0 1-2 2 2 2 0 0 1-2-2 2 2 0 0 1 2-2 2 2 0 0 1 2 2z"/>
 </g>
</svg>
