<svg version="1.1" viewBox="0 0 16.014 16.014" xmlns="http://www.w3.org/2000/svg">
 <g transform="translate(0 .095963)" fill="#474747" fill-rule="evenodd">
  <path d="m3.014 1.014a1 1 0 0 0-1 1v13a1 1 0 0 0 1 1h10a1 1 0 0 0 1-1v-9.5a1 1 0 0 0-0.293-0.707l-3.5-3.5a1 1 0 0 0-0.707-0.293zm1 2h5.086l2.914 2.914v8.086h-8z" color="#000000" font-weight="400" overflow="visible" style="font-feature-settings:normal;font-variant-alternates:normal;font-variant-caps:normal;font-variant-ligatures:normal;font-variant-numeric:normal;font-variant-position:normal;isolation:auto;mix-blend-mode:normal;shape-padding:0;text-decoration-color:#000000;text-decoration-line:none;text-decoration-style:solid;text-indent:0;text-orientation:mixed;text-transform:none;white-space:normal"/>
  <path d="m9.014 2.014v4h4z"/>
 </g>
 <rect x="1.4155" y="4.7144" width="13.147" height="10.004" fill="#fff"/>
 <path d="m10.967 10.355c-0.2824-0.0019-0.56065 0.01203-0.83531 0.02766-0.10124 0.0068-0.20147 0.01554-0.30161 0.02421-0.10265-0.10624-0.20186-0.216-0.29786-0.32825-0.61088-0.72314-1.1041-1.5432-1.506-2.3954 0.10671-0.41176 0.19209-0.84148 0.24365-1.2878 0.09413-0.81453 0.12647-1.7428-0.17873-2.5194-0.10538-0.26802-0.38637-0.59432-0.71056-0.43183-0.3727 0.18686-0.47753 0.71626-0.50792 1.0915-0.02445 0.30333-0.0073 0.60744 0.04359 0.9057 0.05187 0.30028 0.13538 0.58541 0.22631 0.87015 0.08484 0.26107 0.17834 0.52011 0.28029 0.77672-0.06468 0.20201-0.13335 0.40051-0.20545 0.59393-0.16811 0.44082-0.34989 0.85961-0.52472 1.2625-0.09218 0.19975-0.1824 0.39528-0.27068 0.58643-0.27935 0.61361-0.5826 1.216-0.92288 1.7983-0.79391 0.28005-1.5063 0.60471-2.098 0.98624-0.31739 0.20506-0.59776 0.42777-0.83125 0.67205-0.22045 0.2306-0.44449 0.52987-0.4641 0.86117-0.01101 0.18701 0.06304 0.36848 0.21623 0.47941 0.21068 0.15741 0.48988 0.14694 0.73431 0.09569 0.80071-0.16795 1.4156-0.85625 1.9392-1.4363 0.36067-0.39957 0.77118-0.90695 1.2006-1.5206 9.2e-4 -0.0014 0.0019-0.0028 0.0029-0.0042 0.73649-0.22834 1.5381-0.42113 2.3888-0.56284 0.38864-0.06445 0.78758-0.11718 1.1945-0.1542 0.28615 0.26802 0.59534 0.51206 0.93265 0.71587 0.26271 0.16162 0.54214 0.2981 0.83461 0.39988 0.29575 0.09663 0.5933 0.17553 0.90054 0.22545 0.15514 0.02219 0.3138 0.03227 0.47589 0.02617 0.36176-0.01367 0.88101-0.15241 0.91507-0.59135 0.01047-0.13444-0.01851-0.25224-0.07656-0.35551-0.28458-0.50722-1.2679-0.66658-1.7191-0.73829-0.35567-0.05648-0.71868-0.07335-1.0783-0.07304zm-5.8635 1.6168c-0.16944 0.26248-0.33286 0.49855-0.48683 0.70626-0.37707 0.51308-0.80774 1.1225-1.4313 1.3503-0.11843 0.04328-0.27435 0.08796-0.43871 0.07827-0.14639-0.0086-0.29075-0.07312-0.28411-0.23943 0.0033-0.08702 0.04585-0.19803 0.11116-0.30708 0.07148-0.1196 0.15999-0.22928 0.25584-0.33013 0.20537-0.21576 0.46503-0.42488 0.76376-0.61854 0.45816-0.29724 1.0051-0.56479 1.6148-0.80352-0.03507 0.05546-0.07007 0.11062-0.10468 0.16381zm2.1265-6.5822c-0.04703-0.27451-0.05414-0.55284-0.02523-0.82047 0.01437-0.13382 0.04164-0.26443 0.08109-0.38684 0.03343-0.1039 0.10561-0.35747 0.22076-0.39004 0.18983-0.053743 0.24818 0.35379 0.26966 0.4691 0.12233 0.65588 0.01453 1.3853-0.13225 2.0286-0.023361 0.10233-0.049378 0.20303-0.076014 0.30333-0.045466-0.12507-0.08882-0.25052-0.12874-0.37661-0.085929-0.27536-0.16452-0.55393-0.20928-0.82711zm1.3032 5.1776c-0.71321 0.11561-1.3917 0.26708-2.0294 0.4459 0.07679-0.02148 0.42769-0.6865 0.50597-0.82453 0.36879-0.64955 0.67048-1.3313 0.88726-2.0464 0.38278 0.75704 0.84734 1.4813 1.4181 2.1259 0.05257 0.05851 0.106 0.11632 0.16038 0.17342-0.31981 0.03445-0.63455 0.0764-0.94226 0.12577zm4.8233 0.91351c-0.02609 0.141-0.32724 0.22162-0.46777 0.24381-0.41527 0.06531-0.85461 0.01304-1.2521-0.12046-0.27271-0.09155-0.53573-0.21623-0.78563-0.36622-0.24841-0.15006-0.48081-0.32661-0.69806-0.52128 0.26786-0.01609 0.53901-0.02664 0.81149-0.02148 0.27248 0.0028 0.54706 0.01648 0.81828 0.05187 0.50862 0.05671 1.0786 0.23131 1.4789 0.56135 0.07882 0.06507 0.10397 0.12257 0.09483 0.17241z" fill="#474747" stroke="#474747" stroke-width=".378"/>
</svg>
