<svg version="1.1" viewBox="0 0 16 16" xmlns="http://www.w3.org/2000/svg">
 <g fill="#474747">
  <path d="M9 10c0 .554.446 1 1 1s1-.446 1-1-.446-1-1-1-1 .446-1 1zM5 10c0 .554.446 1 1 1s1-.446 1-1-.446-1-1-1-1 .446-1 1z" overflow="visible"/>
  <path d="M3 1a1 1 0 0 0-1 1v13a1 1 0 0 0 1 1h2a1 1 0 1 0 0-2H4V3h5.586L12 5.414V14H9v-4a1 1 0 1 0-2 0v5a1 1 0 0 0 1 1h5a1 1 0 0 0 1-1V5a1 1 0 0 0-.293-.707l-3-3A1 1 0 0 0 10 1z" fill-rule="evenodd" font-family="sans-serif" font-weight="400" overflow="visible" style="font-feature-settings:normal;font-variant-alternates:normal;font-variant-caps:normal;font-variant-ligatures:normal;font-variant-numeric:normal;font-variant-position:normal;isolation:auto;mix-blend-mode:normal;shape-padding:0;text-decoration-color:#000;text-decoration-line:none;text-decoration-style:solid;text-indent:0;text-orientation:mixed;text-transform:none" white-space="normal"/>
  <path d="M8 6.586L5.293 9.293l1.414 1.414L8 9.414l1.293 1.293 1.414-1.414z" font-family="sans-serif" font-weight="400" overflow="visible" style="font-feature-settings:normal;font-variant-alternates:normal;font-variant-caps:normal;font-variant-ligatures:normal;font-variant-numeric:normal;font-variant-position:normal;isolation:auto;mix-blend-mode:normal;shape-padding:0;text-decoration-color:#000;text-decoration-line:none;text-decoration-style:solid;text-indent:0;text-orientation:mixed;text-transform:none" white-space="normal"/>
  <path d="m10 10v1h1v-1zm-5 0v1h1v-1z" overflow="visible"/>
 </g>
 <g transform="matrix(.66792 0 0 .64153 5.2785 5.612)" fill="#c00">
  <path d="m14.994 16h1v-1l-7-7-1 1z" fill-rule="evenodd"/>
  <path d="M 6.994,0.586 0.58,7 1.994,8.414 8.408,2 Z" color="#000000" fill-rule="evenodd" font-weight="400" overflow="visible" style="font-feature-settings:normal;font-variant-alternates:normal;font-variant-caps:normal;font-variant-ligatures:normal;font-variant-numeric:normal;font-variant-position:normal;isolation:auto;mix-blend-mode:normal;shape-padding:0;text-decoration-color:#000000;text-decoration-line:none;text-decoration-style:solid;text-indent:0;text-orientation:mixed;text-transform:none;white-space:normal"/>
  <path d="m6.752 15.243a6 6 0 0 1 0-8.486 6 6 0 0 1 8.485 0l-4.243 4.243z"/>
  <path d="m1.922 6.995 5.7 4.433 3.8-3.8-4.428-5.628z" fill-rule="evenodd"/>
 </g>
</svg>
