<svg version="1.1" viewBox="0 0 16 16" xmlns="http://www.w3.org/2000/svg">
 <g fill="#474747" font-family="sans-serif" font-weight="400" white-space="normal">
  <path d="M2.979 3.99a1 1 0 0 0-.604 1.791L8 10.281l5.625-4.5a1 1 0 1 0-1.25-1.562L8 7.719l-4.375-3.5a1 1 0 0 0-.646-.229z" overflow="visible" style="font-feature-settings:normal;font-variant-alternates:normal;font-variant-caps:normal;font-variant-ligatures:normal;font-variant-numeric:normal;font-variant-position:normal;isolation:auto;mix-blend-mode:normal;shape-padding:0;text-decoration-color:#000;text-decoration-line:none;text-decoration-style:solid;text-indent:0;text-orientation:mixed;text-transform:none"/>
  <path d="M2 3a1 1 0 0 0-1 1v9a1 1 0 0 0 1 1h12a1 1 0 0 0 1-1V4a1 1 0 0 0-1-1zm1 2h10v7H3z" overflow="visible" style="font-feature-settings:normal;font-variant-alternates:normal;font-variant-caps:normal;font-variant-ligatures:normal;font-variant-numeric:normal;font-variant-position:normal;isolation:auto;mix-blend-mode:normal;shape-padding:0;text-decoration-color:#000;text-decoration-line:none;text-decoration-style:solid;text-indent:0;text-orientation:mixed;text-transform:none"/>
 </g>
 <g transform="matrix(.66792 0 0 .64153 4.8918 5.2387)" fill="#c00">
  <path d="m14.994 16h1v-1l-7-7-1 1z" fill-rule="evenodd"/>
  <path d="M 6.994,0.586 0.58,7 1.994,8.414 8.408,2 Z" color="#000000" fill-rule="evenodd" font-weight="400" overflow="visible" style="font-feature-settings:normal;font-variant-alternates:normal;font-variant-caps:normal;font-variant-ligatures:normal;font-variant-numeric:normal;font-variant-position:normal;isolation:auto;mix-blend-mode:normal;shape-padding:0;text-decoration-color:#000000;text-decoration-line:none;text-decoration-style:solid;text-indent:0;text-orientation:mixed;text-transform:none;white-space:normal"/>
  <path d="m6.752 15.243a6 6 0 0 1 0-8.486 6 6 0 0 1 8.485 0l-4.243 4.243z"/>
  <path d="m1.922 6.995 5.7 4.433 3.8-3.8-4.428-5.628z" fill-rule="evenodd"/>
 </g>
</svg>
